<svg width="178" height="35" viewBox="0 0 178 35" fill="none" xmlns="http://www.w3.org/2000/svg">
<path d="M46.66 27C46.4733 27 46.3053 26.9347 46.156 26.804C46.0253 26.6547 45.96 26.4867 45.96 26.3V8.1C45.96 7.89467 46.0253 7.72667 46.156 7.596C46.3053 7.46533 46.4733 7.4 46.66 7.4H54.5C56.8893 7.4 58.7653 7.95067 60.128 9.052C61.5093 10.1533 62.2 11.7587 62.2 13.868C62.2 15.9587 61.5187 17.536 60.156 18.6C58.7933 19.6453 56.908 20.168 54.5 20.168H51.168V26.3C51.168 26.5053 51.0933 26.6733 50.944 26.804C50.8133 26.9347 50.6453 27 50.44 27H46.66ZM54.36 16.304C55.1813 16.304 55.8253 16.0987 56.292 15.688C56.7587 15.2587 56.992 14.6333 56.992 13.812C56.992 13.0467 56.768 12.44 56.32 11.992C55.8907 11.5253 55.2373 11.292 54.36 11.292H51.084V16.304H54.36ZM66.1419 27C65.9552 27 65.7872 26.9347 65.6379 26.804C65.5072 26.6547 65.4419 26.4867 65.4419 26.3V8.1C65.4419 7.89467 65.5072 7.72667 65.6379 7.596C65.7872 7.46533 65.9552 7.4 66.1419 7.4H73.7579C76.2032 7.4 78.1072 7.96 79.4699 9.08C80.8512 10.1813 81.5419 11.7493 81.5419 13.784C81.5419 15.0907 81.2339 16.2013 80.6179 17.116C80.0019 18.0307 79.1525 18.7307 78.0699 19.216L81.9059 26.104C81.9619 26.216 81.9899 26.3187 81.9899 26.412C81.9899 26.5613 81.9245 26.7013 81.7939 26.832C81.6819 26.944 81.5512 27 81.4019 27H77.6779C77.1365 27 76.7539 26.748 76.5299 26.244L73.3379 20.084H70.4819V26.3C70.4819 26.5053 70.4072 26.6733 70.2579 26.804C70.1272 26.9347 69.9592 27 69.7539 27H66.1419ZM73.7019 16.108C74.5605 16.108 75.2139 15.9027 75.6619 15.492C76.1099 15.0627 76.3339 14.4747 76.3339 13.728C76.3339 12.9813 76.1099 12.3933 75.6619 11.964C75.2325 11.516 74.5792 11.292 73.7019 11.292H70.4819V16.108H73.7019ZM93.2872 27.28C90.6552 27.28 88.5832 26.636 87.0712 25.348C85.5592 24.06 84.7566 22.1653 84.6632 19.664C84.6446 19.1227 84.6352 18.32 84.6352 17.256C84.6352 16.1733 84.6446 15.3613 84.6632 14.82C84.7566 12.356 85.5686 10.4613 87.0992 9.136C88.6486 7.792 90.7112 7.12 93.2872 7.12C95.8632 7.12 97.9259 7.792 99.4752 9.136C101.025 10.4613 101.837 12.356 101.911 14.82C101.949 15.9027 101.967 16.7147 101.967 17.256C101.967 17.7787 101.949 18.5813 101.911 19.664C101.818 22.1653 101.015 24.06 99.5032 25.348C97.9912 26.636 95.9192 27.28 93.2872 27.28ZM93.2872 23.248C94.3139 23.248 95.1259 22.94 95.7232 22.324C96.3392 21.708 96.6659 20.7653 96.7032 19.496C96.7406 18.4133 96.7592 17.648 96.7592 17.2C96.7592 16.7147 96.7406 15.9493 96.7032 14.904C96.6659 13.6347 96.3392 12.692 95.7232 12.076C95.1072 11.46 94.2952 11.152 93.2872 11.152C92.2792 11.152 91.4672 11.46 90.8512 12.076C90.2539 12.692 89.9272 13.6347 89.8712 14.904C89.8526 15.4267 89.8432 16.192 89.8432 17.2C89.8432 18.1893 89.8526 18.9547 89.8712 19.496C89.9272 20.7653 90.2539 21.708 90.8512 22.324C91.4486 22.94 92.2606 23.248 93.2872 23.248ZM106.893 27C106.706 27 106.547 26.944 106.417 26.832C106.305 26.7013 106.249 26.5427 106.249 26.356V8.072C106.249 7.86667 106.305 7.708 106.417 7.596C106.547 7.46533 106.706 7.4 106.893 7.4H113.249C116.067 7.4 118.102 8.03467 119.353 9.304C120.603 10.5547 121.257 12.4493 121.313 14.988C121.331 15.5293 121.341 16.2573 121.341 17.172C121.341 18.0867 121.331 18.824 121.313 19.384C121.257 21.1573 120.958 22.604 120.417 23.724C119.894 24.8253 119.063 25.6467 117.925 26.188C116.786 26.7293 115.274 27 113.389 27H106.893ZM113.249 24.62C114.537 24.62 115.554 24.4427 116.301 24.088C117.066 23.7333 117.617 23.1733 117.953 22.408C118.307 21.624 118.503 20.5787 118.541 19.272C118.578 18.152 118.597 17.452 118.597 17.172C118.597 16.8733 118.578 16.1827 118.541 15.1C118.503 13.252 118.065 11.908 117.225 11.068C116.385 10.2093 115.013 9.78 113.109 9.78H108.993V24.62H113.249ZM126.757 27C126.571 27 126.412 26.944 126.281 26.832C126.169 26.7013 126.113 26.5427 126.113 26.356V8.072C126.113 7.86667 126.169 7.708 126.281 7.596C126.412 7.46533 126.571 7.4 126.757 7.4H138.321C138.508 7.4 138.657 7.46533 138.769 7.596C138.9 7.708 138.965 7.86667 138.965 8.072V9.136C138.965 9.32267 138.909 9.48133 138.797 9.612C138.685 9.724 138.527 9.78 138.321 9.78H128.801V15.912H137.705C137.892 15.912 138.041 15.9773 138.153 16.108C138.284 16.22 138.349 16.3787 138.349 16.584V17.62C138.349 17.8067 138.284 17.9653 138.153 18.096C138.041 18.208 137.892 18.264 137.705 18.264H128.801V24.62H138.545C138.751 24.62 138.909 24.676 139.021 24.788C139.133 24.9 139.189 25.0587 139.189 25.264V26.356C139.189 26.5427 139.124 26.7013 138.993 26.832C138.881 26.944 138.732 27 138.545 27H126.757ZM144.298 27C144.111 27 143.953 26.944 143.822 26.832C143.71 26.7013 143.654 26.5427 143.654 26.356V8.072C143.654 7.86667 143.71 7.708 143.822 7.596C143.953 7.46533 144.111 7.4 144.298 7.4H145.586C145.922 7.4 146.155 7.53067 146.286 7.792L155.582 22.072V8.072C155.582 7.86667 155.638 7.708 155.75 7.596C155.881 7.46533 156.039 7.4 156.226 7.4H157.57C157.775 7.4 157.934 7.46533 158.046 7.596C158.177 7.708 158.242 7.86667 158.242 8.072V26.328C158.242 26.5147 158.177 26.6733 158.046 26.804C157.934 26.9347 157.785 27 157.598 27H156.254C155.974 27 155.75 26.8693 155.582 26.608L146.314 12.468V26.356C146.314 26.5427 146.249 26.7013 146.118 26.832C145.987 26.944 145.829 27 145.642 27H144.298ZM168.611 27C168.424 27 168.265 26.944 168.135 26.832C168.023 26.7013 167.967 26.5427 167.967 26.356V9.892H162.591C162.404 9.892 162.245 9.836 162.115 9.724C162.003 9.59333 161.947 9.43467 161.947 9.248V8.072C161.947 7.88533 162.003 7.72667 162.115 7.596C162.245 7.46533 162.404 7.4 162.591 7.4H176.087C176.292 7.4 176.451 7.46533 176.563 7.596C176.693 7.708 176.759 7.86667 176.759 8.072V9.248C176.759 9.43467 176.693 9.59333 176.563 9.724C176.432 9.836 176.273 9.892 176.087 9.892H170.739V26.356C170.739 26.5427 170.673 26.7013 170.543 26.832C170.412 26.944 170.253 27 170.067 27H168.611Z" fill="#EA4781"/>
<rect width="35" height="35" rx="5.25" fill="#EA4681"/>
<rect x="3" y="3" width="9.625" height="9.625" rx="1.75" fill="white"/>
</svg>
